# xmcd
#
# Track frame offsets: 
#        150
#        13391
#        29785
#        35857
#        41330
#        57298
#        75049
#        104815
#        115144
#        122627
#        129885
#        133425
#        135029
#        141328
#        144159
#        149434
#        192490
#        227621
#        240244
#
# Disc length: 3343 seconds
#
# Revision: 0
# Processed by: cddbd v1.5PL3 Copyright (c) Steve Scherf et al.
# Submitted via: ExactAudioCopy v0.95a3
#
DISCID=100d0d13
DTITLE=Various Artist - Blues In The Mississippi Night
DYEAR=2003
DGENRE=Blues
TTITLE0=Life Is Like That (Memphis Slim, Big Bill Broonzy, Sonny Boy W
TTITLE0=illiamson)
TTITLE1=Conversation Begins (Big Bill Broonzy, Memphis Slim, Sonny Boy
TTITLE1=Williamson)
TTITLE2=Lining Hymn (Unidentified leader and congregation)
TTITLE3=Conversation Continues
TTITLE4=I Could Hear My Name Ringin'  (Memphis Slim, Sonny Boy William
TTITLE4=son)
TTITLE5=Conversation Continues
TTITLE6=Levee Camp And Prison Songs - Conversation Continues
TTITLE7=Stackalee (Big Bill Broonzy, Memphis Slim, Sonny Boy Williamso
TTITLE7=n)
TTITLE8=O'Berta (Bull and group)
TTITLE9=Conversation Continues
TTITLE10=Murderer's Home (Jimpson and group)
TTITLE11=Conversation Continues
TTITLE12=Don't You Hear Po' Mother Callin'? (Hollie Dew, Bull, and gro
TTITLE12=up)
TTITLE13=Conversation Continues
TTITLE14=Slow Blues (Memphis Slim)
TTITLE15=Conversation Continues
TTITLE16=Conversation Continues
TTITLE17=Fast Boogie (Memphis Slim)
TTITLE18=Black, Brown, And White Blues (Big Bill Broonzy)
EXTD=
EXTT0=
EXTT1=
EXTT2=
EXTT3=
EXTT4=
EXTT5=
EXTT6=
EXTT7=
EXTT8=
EXTT9=
EXTT10=
EXTT11=
EXTT12=
EXTT13=
EXTT14=
EXTT15=
EXTT16=
EXTT17=
EXTT18=
PLAYORDER=
